<svg width="24" height="24" viewBox="0 0 24 24" fill="none" xmlns="http://www.w3.org/2000/svg">
<path d="M19.8301 5.5H4.16992C3.25102 5.5 2.5 6.24772 2.5 7.16992V17.1895C2.5 18.112 3.2515 18.8594 4.16992 18.8594H19.8301C20.749 18.8594 21.5 18.1117 21.5 17.1895V7.16992C21.5 6.24749 20.7486 5.5 19.8301 5.5ZM19.5737 6.61328L12.4314 13.7789C12.2137 13.9972 11.7864 13.9973 11.5686 13.7789L4.42635 6.61328H19.5737ZM3.61328 16.9848V7.37458L8.4028 12.1797L3.61328 16.9848ZM4.42635 17.7461L9.18874 12.9682L10.7802 14.5648C11.4323 15.2191 12.5679 15.2188 13.2199 14.5648L14.8113 12.9682L19.5737 17.7461H4.42635ZM20.3867 16.9848L15.5972 12.1797L20.3867 7.37458V16.9848Z" fill="#1078D7"/>
</svg>
