<svg width="24" height="24" viewBox="0 0 24 24" fill="none" xmlns="http://www.w3.org/2000/svg">
<path fill-rule="evenodd" clip-rule="evenodd" d="M4.53334 10.5259C4.53334 6.19649 7.98428 2.66667 12.2659 2.66667C16.5475 2.66667 19.9985 6.19649 19.9985 10.5259C19.9985 12.6159 19.4028 14.8602 18.3498 16.799C17.2981 18.7355 15.7616 20.4182 13.8394 21.3166C12.8408 21.7834 11.691 21.7834 10.6924 21.3166C8.77023 20.4182 7.23365 18.7355 6.18197 16.799C5.12899 14.8602 4.53334 12.6159 4.53334 10.5259ZM12.2659 3.99225C8.73847 3.99225 5.85892 6.9063 5.85892 10.5259C5.85892 12.3791 6.39148 14.4073 7.34685 16.1664C8.30351 17.9279 9.65541 19.3687 11.2537 20.1157C11.8966 20.4162 12.6352 20.4162 13.2781 20.1157C14.8764 19.3687 16.2283 17.9279 17.185 16.1664C18.1403 14.4073 18.6729 12.3791 18.6729 10.5259C18.6729 6.9063 15.7933 3.99225 12.2659 3.99225ZM12.2659 8.41085C11.1678 8.41085 10.2775 9.30108 10.2775 10.3992C10.2775 11.4974 11.1678 12.3876 12.2659 12.3876C13.364 12.3876 14.2543 11.4974 14.2543 10.3992C14.2543 9.30108 13.364 8.41085 12.2659 8.41085ZM8.95195 10.3992C8.95195 8.56898 10.4357 7.08527 12.2659 7.08527C14.0961 7.08527 15.5799 8.56898 15.5799 10.3992C15.5799 12.2295 14.0961 13.7132 12.2659 13.7132C10.4357 13.7132 8.95195 12.2295 8.95195 10.3992Z" fill="#1078D7"/>
</svg>
