<svg width="240" height="59" viewBox="0 0 240 59" fill="none" xmlns="http://www.w3.org/2000/svg">
<path d="M57.5957 0H0V58.2095H240V0H57.5957ZM236.197 54.3655H57.5957V3.89894H236.142V54.3655H236.197Z" fill="#1078D7"/>
<path fill-rule="evenodd" clip-rule="evenodd" d="M29.2085 7.69086C28.7096 10.3263 24.809 17.0304 19.7745 23.9656C14.6039 31.0858 13.6514 37.0964 16.8263 42.4597C19.0941 46.2972 23.7205 49.3487 28.3468 50.0422C29.8889 50.2734 30.2971 50.2272 31.9753 49.811C37.9169 48.2853 42.5886 43.8467 43.7225 38.7146C44.4482 35.4782 43.7225 31.5944 41.8629 28.0805C41.4093 27.2483 39.8672 24.8441 38.3705 22.7635C36.8737 20.6367 35.0141 17.8164 34.1977 16.4755C32.4288 13.609 30.0703 8.84674 29.8435 7.78333C29.6621 6.8124 29.39 6.76616 29.2085 7.69086ZM19.9106 25.214C17.8242 28.0805 16.3274 31.9181 16.0099 34.8771C15.5564 39.6856 18.4592 44.7252 23.1762 47.453L24.0833 47.9616L22.9494 46.4821C21.6341 44.7714 20.228 42.1822 19.4116 40.0092C17.7788 35.5244 18.0056 30.1611 20.0466 25.7688C20.4548 24.8441 20.7723 24.1043 20.727 24.1043C20.7723 24.1043 20.3641 24.6129 19.9106 25.214Z" fill="white"/>
<path d="M63.0002 43.7434C63.0002 45.8604 64.4798 47.2717 66.3629 47.2717C68.246 47.2717 69.7256 45.7898 69.7256 43.7434C69.7256 41.6264 68.246 40.2151 66.3629 40.2151C64.3453 40.1445 63.0002 41.697 63.0002 43.7434ZM63.8073 43.7434C63.8073 42.1204 64.8833 40.9913 66.2956 40.9913C67.708 40.9913 68.784 42.1204 68.784 43.7434C68.784 45.2959 67.7752 46.4955 66.2956 46.4955C64.9506 46.4955 63.8073 45.2959 63.8073 43.7434ZM74.0971 40.1445C73.6936 40.709 73.0883 40.4973 72.0795 40.9207C70.7344 41.4853 70.5326 43.1789 70.5326 44.5196C70.5326 46.2132 71.4069 47.2717 72.752 47.2717C74.0298 47.2717 74.9041 46.2132 74.9041 45.0136C74.9041 43.6728 74.1643 42.826 72.9538 42.826C72.214 42.826 71.5414 43.2494 71.2724 43.8845C71.3397 43.0377 71.5414 42.1204 72.3485 41.7675C73.29 41.3441 73.9626 41.6264 74.5006 40.8502L74.0971 40.1445ZM71.3397 44.6608C71.4742 44.0962 72.0122 43.5317 72.8193 43.5317C73.6936 43.5317 74.1643 44.1668 74.1643 45.0136C74.1643 45.8604 73.6263 46.4955 72.752 46.4955C71.945 46.5661 71.3397 45.7898 71.3397 44.6608ZM75.7784 44.943C75.7784 46.2838 76.6527 47.2717 78.0651 47.2717C79.4101 47.2717 80.3517 46.2838 80.3517 44.943C80.3517 43.6023 79.4774 42.6143 78.0651 42.6143C76.6527 42.6143 75.7784 43.6023 75.7784 44.943ZM76.5855 44.943C76.5855 44.0257 77.1908 43.3906 78.0651 43.3906C78.9394 43.3906 79.5446 44.0257 79.5446 44.943C79.5446 45.8604 78.9394 46.4955 78.0651 46.4955C77.1908 46.5661 76.5855 45.8604 76.5855 44.943ZM81.3605 49.177H82.1003V46.9895C82.3693 47.2012 82.8401 47.2717 83.3109 47.2717C84.6559 47.2717 85.5302 46.2132 85.5302 44.8725C85.5302 43.5317 84.7904 42.6143 83.5799 42.6143C82.9746 42.6143 82.4366 42.8966 82.1675 43.2494V42.7555H81.4278V49.177H81.3605ZM83.3109 43.3906C84.1852 43.3906 84.7232 44.0257 84.7232 44.943C84.7232 45.8604 84.1852 46.5661 83.2436 46.5661C82.8401 46.5661 82.5038 46.4955 82.1003 46.2132V44.0257C82.3693 43.6728 82.8401 43.3906 83.3109 43.3906ZM90.3053 42.7555H89.431L88.4221 45.5781C88.3549 45.7898 88.2876 46.0721 88.2204 46.2838C88.1531 46.0721 88.0859 45.8604 87.9514 45.5781L86.6736 42.7555H85.7993L87.8169 47.2011L87.7496 47.4129C87.4806 48.1185 87.2116 48.4008 86.8753 48.4008C86.6736 48.4008 86.539 48.3302 86.4045 48.2596L86.1355 48.8947C86.3373 49.0359 86.6063 49.177 86.9426 49.177C87.5478 49.177 87.9514 48.7536 88.5567 47.2011L90.3053 42.7555ZM90.1707 48.2596H90.9105V47.2011H94.3405V48.2596H95.0803V46.4249H94.3405V42.7555H91.4486L91.3813 43.9551C91.3141 45.1547 91.045 46.0721 90.7088 46.4955H90.1707V48.2596ZM92.0539 44.2374L92.1211 43.4611H93.5334V46.4249H91.5158C91.7176 46.1427 91.9866 45.3664 92.0539 44.2374ZM95.5511 44.943C95.5511 46.2838 96.4254 47.2717 97.8377 47.2717C99.1828 47.2717 100.124 46.2838 100.124 44.943C100.124 43.6023 99.25 42.6143 97.8377 42.6143C96.4254 42.6143 95.5511 43.6023 95.5511 44.943ZM96.3581 44.943C96.3581 44.0257 96.9634 43.3906 97.8377 43.3906C98.712 43.3906 99.3173 44.0257 99.3173 44.943C99.3173 45.8604 98.712 46.4955 97.8377 46.4955C96.9634 46.5661 96.3581 45.8604 96.3581 44.943ZM101.133 47.2011C101.537 47.2011 102.142 47.2717 102.68 47.2717C104.025 47.2717 104.63 46.8483 104.63 46.0015C104.63 45.437 104.294 45.0842 103.622 44.943C104.16 44.8725 104.496 44.4491 104.496 43.9551C104.496 43.1789 103.891 42.826 102.68 42.826C102.075 42.826 101.537 42.8966 101.133 42.8966V47.2011ZM102.814 45.1547C103.487 45.1547 103.891 45.3664 103.891 45.8604C103.891 46.3544 103.487 46.5661 102.814 46.5661C102.478 46.5661 102.209 46.5661 101.94 46.4955V45.1547H102.814ZM102.747 43.32C103.285 43.32 103.689 43.5317 103.689 43.9551C103.689 44.3785 103.352 44.6608 102.814 44.6608H101.873V43.32C102.075 43.3906 102.411 43.32 102.747 43.32ZM106.043 43.6728C106.379 43.4611 106.715 43.32 107.186 43.32C107.993 43.32 108.128 43.8845 108.128 44.7313C107.859 44.5196 107.388 44.4491 107.051 44.4491C106.11 44.4491 105.437 44.943 105.437 45.8604C105.437 46.7072 105.975 47.2011 106.715 47.2011C107.388 47.2011 107.791 46.9189 108.06 46.5661V47.1306H108.8V44.3785C108.8 43.2494 108.397 42.5438 107.186 42.5438C106.648 42.5438 106.177 42.6849 105.774 42.9672L106.043 43.6728ZM107.051 46.5661C106.581 46.5661 106.312 46.2838 106.312 45.8604C106.312 45.3664 106.782 45.1547 107.253 45.1547C107.589 45.1547 107.926 45.2253 108.195 45.437V46.0015C107.926 46.2132 107.589 46.5661 107.051 46.5661ZM113.239 47.2011H113.979V42.7555H113.239V44.5902H110.885V42.7555H110.145V47.2011H110.885V45.2959H113.239V47.2011ZM116.131 47.2011L118.552 43.8845V47.2011H119.292V42.7555H118.552L116.131 46.0721V42.7555H115.391V47.2011H116.131ZM123.999 46.0721C123.73 46.3544 123.26 46.5661 122.722 46.5661C121.915 46.5661 121.309 46.0721 121.242 45.2253H124.537C124.537 45.0842 124.605 44.943 124.605 44.6608C124.605 43.4611 123.73 42.6143 122.654 42.6143C121.242 42.6143 120.502 43.6728 120.502 44.943C120.502 46.3544 121.377 47.2717 122.789 47.2717C123.327 47.2717 123.999 47.06 124.403 46.7072L123.999 46.0721ZM122.52 43.3906C123.26 43.3906 123.73 43.814 123.73 44.5902H121.175C121.242 43.8845 121.78 43.3906 122.52 43.3906ZM127.093 48.2596H127.766V47.2011H131.196V48.2596H131.935V46.4249H131.196V42.7555H128.304L128.236 43.9551C128.169 45.1547 127.9 46.0721 127.564 46.4955H127.026V48.2596H127.093ZM128.976 44.2374L129.043 43.4611H130.456V46.4249H128.371C128.64 46.1427 128.909 45.3664 128.976 44.2374ZM135.634 47.2011H136.374V42.7555H133.415L133.348 44.1668C133.213 46.2132 132.608 46.5661 132.339 46.4955L132.406 47.2717C133.28 47.2717 133.953 46.8483 134.087 44.3079L134.155 43.5317H135.634V47.2011ZM139.602 42.7555C138.19 42.7555 137.719 43.4611 137.719 44.2374C137.719 44.943 138.19 45.437 138.661 45.5076L137.45 47.2011H138.392L139.401 45.7193H140.208V47.2011H140.947V42.7555H139.602ZM138.526 44.2374C138.526 43.814 138.795 43.4611 139.468 43.4611H140.14V44.943H139.266C138.93 44.943 138.526 44.6608 138.526 44.2374ZM144.108 44.943C144.108 46.2838 145.05 47.2717 146.395 47.2717C147.74 47.2717 148.682 46.2838 148.682 44.943C148.682 43.6023 147.807 42.6143 146.395 42.6143C145.05 42.6143 144.108 43.6023 144.108 44.943ZM144.915 44.943C144.915 44.0257 145.521 43.3906 146.395 43.3906C147.269 43.3906 147.875 44.0257 147.875 44.943C147.875 45.8604 147.269 46.4955 146.395 46.4955C145.521 46.5661 144.915 45.8604 144.915 44.943ZM152.919 42.7555H152.179V44.8019C151.977 44.943 151.641 45.0842 151.17 45.0842C150.565 45.0842 150.228 44.7313 150.228 44.0257V42.7555H149.421V44.0962C149.421 45.2253 149.892 45.7898 150.901 45.7898C151.372 45.7898 151.775 45.6487 152.112 45.437V47.1306H152.851V42.7555H152.919ZM155.003 47.2011L157.425 43.8845V47.2011H158.164V42.7555H157.425L155.003 46.0721V42.7555H154.264V47.2011H155.003ZM162.872 46.0015C162.603 46.3544 162.132 46.5661 161.662 46.5661C160.854 46.5661 160.115 46.0015 160.115 45.0136C160.115 44.0962 160.787 43.4611 161.594 43.4611C162.065 43.4611 162.469 43.6023 162.805 43.9551L163.141 43.32C162.738 42.8966 162.132 42.7555 161.46 42.7555C160.249 42.7555 159.308 43.814 159.308 45.0842C159.308 46.4955 160.249 47.4129 161.594 47.4129C162.267 47.4129 162.872 47.1306 163.208 46.6366L162.872 46.0015ZM163.612 43.5317H165.159V47.2011H165.899V43.5317H167.445V42.7555H163.612V43.5317ZM172.019 42.7555H171.01L169.194 44.943L171.077 47.2011H172.086L170.068 44.8725L172.019 42.7555ZM168.252 47.2011H168.992V42.7555H168.252V47.2011ZM173.7 47.2011L176.121 43.8845V47.2011H176.861V42.7555H176.121L173.7 46.0721V42.7555H172.96V47.2011H173.7ZM183.654 46.0015C183.385 46.3544 182.914 46.5661 182.443 46.5661C181.636 46.5661 180.896 46.0015 180.896 45.0136C180.896 44.0962 181.569 43.4611 182.376 43.4611C182.847 43.4611 183.25 43.6023 183.586 43.9551L183.923 43.32C183.519 42.8966 182.914 42.7555 182.241 42.7555C181.031 42.7555 180.089 43.814 180.089 45.0842C180.089 46.4955 181.031 47.4129 182.376 47.4129C183.048 47.4129 183.654 47.1306 183.99 46.6366L183.654 46.0015ZM184.393 43.5317H185.94V47.2011H186.68V43.5317H188.227V42.7555H184.393V43.5317ZM188.698 44.943C188.698 46.2838 189.572 47.2717 190.984 47.2717C192.329 47.2717 193.271 46.2838 193.271 44.943C193.271 43.6023 192.397 42.6143 190.984 42.6143C189.572 42.6143 188.698 43.6023 188.698 44.943ZM189.437 44.943C189.437 44.0257 190.043 43.3906 190.917 43.3906C191.791 43.3906 192.397 44.0257 192.397 44.943C192.397 45.8604 191.791 46.4955 190.917 46.4955C190.043 46.4955 189.437 45.8604 189.437 44.943ZM197.441 42.7555H196.701V44.8019C196.499 44.943 196.163 45.0842 195.759 45.0842C195.154 45.0842 194.818 44.7313 194.818 44.0257V42.7555H194.011V44.0962C194.011 45.2253 194.481 45.7898 195.49 45.7898C195.961 45.7898 196.365 45.6487 196.701 45.437V47.1306H197.441V42.7555ZM201.947 47.2011H202.686V42.7555H201.947V44.5902H199.593V42.7555H198.853V47.2011H199.593V45.2959H201.947V47.2011ZM204.031 47.2011H205.377C206.722 47.2011 207.125 46.4249 207.125 45.6487C207.125 44.8725 206.722 44.0962 205.444 44.0962H204.771V42.7555H204.031V47.2011ZM207.999 47.2011H208.739V42.7555H207.999V47.2011ZM205.309 44.8019C206.049 44.8019 206.318 45.0842 206.318 45.6487C206.318 46.1427 206.049 46.4249 205.309 46.4249H204.771V44.8019H205.309ZM213.851 42.7555H212.976L211.833 44.4491L210.69 42.7555H209.748L211.228 44.943L209.614 47.2011H210.488L211.766 45.3664L212.976 47.2011H213.918L212.304 44.8725L213.851 42.7555ZM216.944 47.2011C217.348 47.2011 217.953 47.2717 218.491 47.2717C219.836 47.2717 220.441 46.8483 220.441 46.0015C220.441 45.437 220.105 45.0842 219.433 44.943C219.971 44.8725 220.307 44.4491 220.307 43.9551C220.307 43.1789 219.702 42.826 218.491 42.826C217.886 42.826 217.348 42.8966 216.944 42.8966V47.2011ZM218.626 45.1547C219.298 45.1547 219.634 45.3664 219.634 45.8604C219.634 46.3544 219.231 46.5661 218.558 46.5661C218.222 46.5661 217.886 46.5661 217.684 46.4955V45.1547H218.626ZM218.558 43.32C219.096 43.32 219.5 43.5317 219.5 43.9551C219.5 44.3785 219.164 44.6608 218.626 44.6608H217.684V43.32C217.886 43.3906 218.222 43.32 218.558 43.32ZM221.316 44.943C221.316 46.2838 222.19 47.2717 223.602 47.2717C225.015 47.2717 225.889 46.2838 225.889 44.943C225.889 43.6023 225.015 42.6143 223.602 42.6143C222.19 42.6143 221.316 43.6023 221.316 44.943ZM222.123 44.943C222.123 44.0257 222.728 43.3906 223.602 43.3906C224.477 43.3906 225.082 44.0257 225.082 44.943C225.082 45.8604 224.477 46.4955 223.602 46.4955C222.728 46.5661 222.123 45.8604 222.123 44.943ZM226.158 48.2596H226.831V47.2011H230.26V48.2596H231V46.4249H230.26V42.7555H227.369L227.301 43.9551C227.234 45.1547 226.965 46.0721 226.629 46.4955H226.091V48.2596H226.158ZM228.108 44.2374L228.176 43.4611H229.588V46.4249H227.503C227.705 46.1427 227.974 45.3664 228.108 44.2374Z" fill="#1078D7"/>
<path d="M68.1939 36.1301V20.4152L73.3154 15.2257H81.0337V36.1301H86.1552V10.0361H70.7185L63.0002 17.857V36.1301H68.1939ZM94.9556 30.8674V15.2257H107.795V30.8674H94.9556ZM110.392 36.1301L112.917 33.5718V12.6674L110.392 10.0361H92.3587L89.834 12.6674V33.5718L92.3587 36.1301H110.392ZM137.154 36.1301L139.679 33.5718V28.3823H134.557V30.9405H121.717V15.2257H134.557V17.857H139.679V12.6674L137.154 10.0361H119.12L116.596 12.6674V33.5718L119.12 36.1301H137.154ZM141.915 25.6779H152.158V20.4883H141.915V25.6779ZM159.876 30.8674V25.6779H172.716V30.8674H159.876ZM175.313 36.1301L177.838 33.5718V23.1196L175.313 20.4883H159.876V15.2257H176.611V10.0361H154.755V36.1301H175.313ZM186.277 36.1301L199.117 18.7341V36.1301H204.239V10.0361H199.117L186.277 27.4321V10.0361H181.156V36.1301H186.277ZM213.111 30.8674V15.2257H225.951V30.8674H213.111ZM228.476 36.1301L231 33.5718V12.6674L228.476 10.0361H210.442L207.917 12.6674V33.5718L210.442 36.1301H228.476Z" fill="#1078D7"/>
</svg>
