<svg width="24" height="24" viewBox="0 0 24 24" fill="none" xmlns="http://www.w3.org/2000/svg">
<path fill-rule="evenodd" clip-rule="evenodd" d="M5.07103 3.48791C6.26573 2.23011 8.24188 2.46576 9.22944 3.86254L10.4581 5.60024C11.248 6.71747 11.1812 8.27072 10.2385 9.26324L9.99995 9.51441C9.99929 9.51614 9.99859 9.51803 9.99786 9.52006C9.98526 9.55548 9.95338 9.6683 9.98475 9.88241C10.0498 10.3263 10.3924 11.2282 11.7834 12.6926C13.1788 14.1617 14.0252 14.508 14.4174 14.5716C14.5866 14.5991 14.6751 14.5753 14.7033 14.5653L15.1014 14.1461C15.9528 13.2498 17.2802 13.0733 18.3504 13.6893L20.2119 14.7607C21.8029 15.6765 22.1732 17.9167 20.9017 19.2553L19.5176 20.7125C19.0856 21.1673 18.4966 21.5555 17.7687 21.6273C15.9917 21.8027 11.875 21.5743 7.55937 17.0307C3.53232 12.7909 2.7673 9.10319 2.67059 7.30144L3.31959 7.2666L2.67059 7.30144C2.62281 6.41122 3.01963 5.64765 3.54172 5.09798L5.07103 3.48791ZM8.0361 4.70628C7.53691 4.00023 6.6401 3.95811 6.13069 4.49442L4.60139 6.10449C4.27851 6.44443 4.1091 6.83406 4.12998 7.22311C4.20894 8.69416 4.84242 12.0481 8.61903 16.0241C12.5789 20.1931 16.227 20.3109 17.6252 20.1729C17.9016 20.1456 18.1861 19.9922 18.4579 19.706L19.842 18.2488C20.4391 17.6202 20.2826 16.4877 19.4828 16.0274L17.6213 14.956C17.1218 14.6684 16.5366 14.7573 16.1611 15.1527L15.7173 15.6199L15.2037 15.132C15.7173 15.6199 15.7167 15.6206 15.716 15.6213L15.7146 15.6227L15.7117 15.6257L15.7055 15.632L15.6916 15.6458C15.6815 15.6555 15.6699 15.6662 15.6568 15.6777C15.6307 15.7006 15.5983 15.7268 15.5593 15.7544C15.4813 15.8098 15.3773 15.8707 15.2458 15.9225C14.9769 16.0286 14.6218 16.0855 14.1831 16.0142C13.3281 15.8754 12.2075 15.2613 10.7237 13.6992C9.23561 12.1324 8.66606 10.9635 8.5387 10.0943C8.47388 9.65187 8.52576 9.29761 8.62095 9.03009C8.66777 8.89853 8.72304 8.79363 8.77402 8.71397C8.79944 8.67425 8.82366 8.64099 8.84508 8.61392C8.85579 8.60039 8.8658 8.5884 8.87492 8.57792L8.8879 8.56332L8.89384 8.55686L8.89667 8.55383L8.89805 8.55237C8.89872 8.55166 8.89939 8.55095 9.41741 9.04297L8.8994 8.55094L9.17885 8.25673C9.61295 7.79971 9.67602 7.02572 9.26471 6.44398L8.0361 4.70628Z" fill="#1078D7"/>
</svg>
